<svg xmlns="http://www.w3.org/2000/svg" width="82.215" height="92.698" viewBox="0 0 82.215 92.698"><g transform="translate(0)"><path d="M111.109,87.952l-4.1-24.008a6.834,6.834,0,0,0-4.789-5.422L91.158,55.184A12.337,12.337,0,0,0,82.6,44.47c.35-.389.675-.776.973-1.155a21.469,21.469,0,0,0,4.4-9.546h.853a4.029,4.029,0,0,0,4.025-4.025V27.682a4.053,4.053,0,0,0-2.086-3.52V19.2a1.357,1.357,0,1,0-2.715,0v5.57a8.368,8.368,0,0,0-1.8.522,1.364,1.364,0,0,0-.191.085c-.146.066-.292.137-.437.215V14.654A5.487,5.487,0,0,0,80.13,9.173H76.383a5.632,5.632,0,0,0-3.555,1.268l-.368.3a3.792,3.792,0,0,1-4.8,0l-.368-.3a5.633,5.633,0,0,0-3.555-1.268H59.989a5.487,5.487,0,0,0-5.481,5.481V25.593c-.145-.079-.291-.149-.437-.215a1.362,1.362,0,0,0-.191-.085,8.37,8.37,0,0,0-1.8-.522V10.687a7.981,7.981,0,0,1,7.972-7.972H80.072a7.981,7.981,0,0,1,7.972,7.972V12.82a1.357,1.357,0,1,0,2.715,0V10.687A10.7,10.7,0,0,0,80.072,0H60.047A10.7,10.7,0,0,0,49.361,10.687V24.162a4.052,4.052,0,0,0-2.086,3.52v2.063A4.029,4.029,0,0,0,51.3,33.77h.853a21.467,21.467,0,0,0,4.4,9.546c.3.378.622.765.972,1.153a12.382,12.382,0,0,0-8.56,10.714L37.9,58.521a6.833,6.833,0,0,0-4.789,5.423l-1.665,9.749a1.357,1.357,0,0,0,2.676.457L35.787,64.4a4.133,4.133,0,0,1,2.9-3.28l10.23-3.087v2.685a6.792,6.792,0,0,0-5.162,4.274,6.885,6.885,0,0,0-.4,1.843l-.989,12.691a3.45,3.45,0,0,0,3.44,3.719h1.692a1.357,1.357,0,1,0,0-2.715H45.8a.735.735,0,0,1-.733-.792l.989-12.691a4.168,4.168,0,0,1,.244-1.117,4.105,4.105,0,0,1,3.842-2.616l.224,0H50.4a4.067,4.067,0,0,1,3.79,2.431,4.164,4.164,0,0,1,.318,1.3L55.5,79.739a.735.735,0,0,1-.733.792H53.069a1.357,1.357,0,1,0,0,2.715h1.692a3.451,3.451,0,0,0,3.44-3.718l-.989-12.691a6.875,6.875,0,0,0-.525-2.152A6.72,6.72,0,0,0,51.63,60.71v-3.5L56.3,55.807c.425.894,1.266,2.827,2.932,6.992C60.908,67,63,72.389,65,77.626a1.376,1.376,0,0,0,.049.129c1.336,3.5,2.632,6.921,3.741,9.875a1.357,1.357,0,0,0,2.542,0c1.108-2.954,2.4-6.378,3.741-9.875a1.355,1.355,0,0,0,.049-.129c2-5.234,4.087-10.618,5.766-14.819,1.669-4.171,2.511-6.1,2.936-7l4.666,1.408v8.018a7.023,7.023,0,1,0,2.715.006v-7.2l10.23,3.087a4.134,4.134,0,0,1,2.9,3.28l4.1,24.008a1.348,1.348,0,0,1-1.329,1.575H33.015a1.348,1.348,0,0,1-1.329-1.575l1.353-7.923a1.357,1.357,0,0,0-2.676-.457L29.01,87.952a4.062,4.062,0,0,0,4,4.746H107.1a4.062,4.062,0,0,0,4-4.747ZM88.06,27.536a5.826,5.826,0,0,1,1.31-.177,1.388,1.388,0,0,0,.663-.158,1.286,1.286,0,0,1,.1.481v2.063a1.312,1.312,0,0,1-1.31,1.31h-.76Zm-36,3.519H51.3a1.312,1.312,0,0,1-1.31-1.31V27.682a1.288,1.288,0,0,1,.1-.48,1.384,1.384,0,0,0,.663.157,6.052,6.052,0,0,1,1.31.178v3.519Zm2.715,1.522V29.011a1.9,1.9,0,0,0,2.449-1.826V14.654a2.769,2.769,0,0,1,2.766-2.766h3.747a2.91,2.91,0,0,1,1.837.655l.368.3a6.508,6.508,0,0,0,8.237,0l.368-.3a2.91,2.91,0,0,1,1.837-.655H80.13A2.769,2.769,0,0,1,82.9,14.654V27.185a1.9,1.9,0,0,0,2.449,1.827v3.565c0,1.982-1.37,5.831-3.91,9.06a17.9,17.9,0,0,1-3.254,3.224,1.361,1.361,0,0,0-.121.091,13.232,13.232,0,0,1-16,0,1.375,1.375,0,0,0-.121-.091,17.91,17.91,0,0,1-3.254-3.224C56.144,38.408,54.774,34.559,54.774,32.578ZM78.953,54.509l-8.893,6.647-8.893-6.647a6.438,6.438,0,0,0,1.376-3.844V48.477a15.942,15.942,0,0,0,15.035,0v2.188A6.438,6.438,0,0,0,78.953,54.509ZM58.9,52.994a3.712,3.712,0,0,0-2.289-.115c-.033.008-.066.017-.1.026l-4.69,1.415a9.644,9.644,0,0,1,8-7.606v3.951A3.59,3.59,0,0,1,58.9,52.994Zm3.684,10.9-.007-.019-.2-.515-.036-.092-.2-.493-.014-.034q-.3-.759-.582-1.455l-.041-.1-.159-.394-.057-.142-.151-.373-.044-.108-.264-.649-.07-.171-.1-.243-.106-.258-.04-.1-.03-.074q-.235-.571-.447-1.078l0-.008c-.075-.18-.149-.355-.22-.523l-.108-.256,7.649,5.717-3.2,1.358-.017.007-1.334.567ZM65.824,72.2q-.4-1.044-.809-2.095-.635-1.64-1.214-3.123l.507-.215,2.07,2.406Zm4.262,11.033a1.351,1.351,0,0,0-.139-.228c-.613-1.621-1.392-3.673-2.254-5.93l1.267-6.939h2.2l1.267,6.939C71.523,79.443,70.712,81.581,70.086,83.236Zm1.582-15.811H68.452L66.93,65.655l3.13-1.329,3.13,1.329ZM75.1,70.108q-.406,1.049-.809,2.095l-.553-3.027,2.07-2.406.507.215Q75.738,68.47,75.1,70.108Zm5.2-13.044c-.067.159-.137.325-.208.495l-.028.067-.216.519-.015.036-.2.476-.037.089-.046.112-.09.22-.113.275-.037.091q-.142.347-.291.715l-.047.115-.149.369-.059.146-.157.39-.045.111q-.276.688-.573,1.435l-.02.049-.194.49-.037.093-.205.518,0,.01-.226.572-1.336-.567-.014-.006-3.2-1.358,7.649-5.717Zm3.3-4.159h0a3.71,3.71,0,0,0-2.382.09,3.589,3.589,0,0,1-.927-2.329V46.712A9.568,9.568,0,0,1,88.3,54.322ZM94.139,72.126a4.309,4.309,0,1,1-4.309-4.309A4.314,4.314,0,0,1,94.139,72.126Z" transform="translate(-28.952)" fill="#9d0644"/></g></svg>