<svg xmlns="http://www.w3.org/2000/svg" width="85.403" height="84.023" viewBox="0 0 85.403 84.023"><path d="M300.427,143.9a1.251,1.251,0,0,0,1.742-.307l2.661-3.8a1.251,1.251,0,1,0-2.049-1.435l-2.662,3.8A1.251,1.251,0,0,0,300.427,143.9Zm0,0" transform="translate(-249.87 -114.831)" fill="#9d0644"/><path d="M337.037,150.949l-.9,4.551a1.251,1.251,0,0,0,2.454.487l.9-4.552a1.251,1.251,0,1,0-2.454-.487Zm0,0" transform="translate(-280.045 -124.931)" fill="#9d0644"/><path d="M278.176,118.439a1.251,1.251,0,0,0-1.718-.422l-3.968,2.406a1.251,1.251,0,1,0,1.3,2.14l3.968-2.4A1.251,1.251,0,0,0,278.176,118.439Zm0,0" transform="translate(-226.535 -98.18)" fill="#9d0644"/><path d="M58.8,101.892a1.7,1.7,0,0,0,1.5,0c1.168-.576,4.977-2.754,4.977-6.583a3.5,3.5,0,0,0-5.723-2.681,3.5,3.5,0,0,0-5.725,2.681C53.82,99.148,57.631,101.319,58.8,101.892Zm-.63-7.067a1.6,1.6,0,0,0,2.75.01.989.989,0,0,1,1.851.475c0,2.117-2.234,3.6-3.223,4.149-.989-.549-3.221-2.026-3.221-4.149A.988.988,0,0,1,58.166,94.825Zm0,0" transform="translate(-44.843 -76.508)" fill="#9d0644"/><path d="M134.892,91.119h4.943a1.251,1.251,0,1,0,0-2.5h-4.943a1.251,1.251,0,1,0,0,2.5Zm0,0" transform="translate(-111.349 -73.836)" fill="#9d0644"/><path d="M134.892,117.529h4.943a1.251,1.251,0,1,0,0-2.5h-4.943a1.251,1.251,0,1,0,0,2.5Zm0,0" transform="translate(-111.349 -95.84)" fill="#9d0644"/><path d="M134.892,143.94h4.943a1.251,1.251,0,1,0,0-2.5h-4.943a1.251,1.251,0,1,0,0,2.5Zm0,0" transform="translate(-111.349 -117.845)" fill="#9d0644"/><path d="M295.128,2.5a1.251,1.251,0,0,0,0-2.5h-12.3l-.058,0a1.249,1.249,0,0,0-1.091.531L277.365,6.7l-5.478-3.836a12.424,12.424,0,0,0-9.94-1.925l-.433-.3a3.537,3.537,0,0,0-4.921.867l-1,1.422a3.537,3.537,0,0,0,.868,4.92l.341.239a5.858,5.858,0,0,0,8.871,6.211l.7.489A5.857,5.857,0,0,0,275.246,21l.7.489a5.857,5.857,0,0,0,8.87,6.211l.343.24a3.537,3.537,0,0,0,4.92-.868l1-1.422a3.538,3.538,0,0,0-.867-4.92l-.546-.382a12.428,12.428,0,0,0-5.209-8.683l-5.037-3.526L283.36,2.5ZM259.189,9.755l4.107,2.876A3.343,3.343,0,0,1,259.189,9.755Zm9.569,6.7,4.108,2.876A3.343,3.343,0,0,1,268.758,16.455Zm9.57,6.7,4.108,2.876A3.343,3.343,0,0,1,278.328,23.156Zm10.7,1.058-1,1.422a1.032,1.032,0,0,1-1.435.253L257.9,5.8a1.037,1.037,0,0,1-.253-1.435l1-1.422a1.037,1.037,0,0,1,1.435-.253l28.693,20.091A1.037,1.037,0,0,1,289.025,24.214Zm-2.486-6.053L265.069,3.128a9.9,9.9,0,0,1,5.383,1.789l12.564,8.8A9.9,9.9,0,0,1,286.539,18.161Zm0,0" transform="translate(-212.432 0)" fill="#9d0644"/><path d="M81.87,276.325H45.621a1.251,1.251,0,0,0,0,2.5H81.87a1.032,1.032,0,0,1,1.031,1.03v2.282a1.032,1.032,0,0,1-1.031,1.031H3.533A1.032,1.032,0,0,1,2.5,282.14v-2.282a1.032,1.032,0,0,1,1.031-1.03h36.25a1.251,1.251,0,0,0,0-2.5H25.545a3.516,3.516,0,0,0,.154-1.03v-2.282a3.537,3.537,0,0,0-3.533-3.533H3.533A3.537,3.537,0,0,0,0,273.013V275.3a3.514,3.514,0,0,0,.841,2.282A3.513,3.513,0,0,0,0,279.858v2.282a3.535,3.535,0,0,0,3.359,3.524v1.1A3.537,3.537,0,0,0,6.892,290.3h3.455v15.87a2.386,2.386,0,0,0,2.384,2.383h2.361a2.387,2.387,0,0,0,2.384-2.383V290.3H67.927v15.87a2.386,2.386,0,0,0,2.384,2.383h2.361a2.386,2.386,0,0,0,2.384-2.383V290.3h3.455a3.537,3.537,0,0,0,3.533-3.533v-1.1a3.535,3.535,0,0,0,3.36-3.524v-2.282A3.537,3.537,0,0,0,81.87,276.325ZM2.5,273.013a1.032,1.032,0,0,1,1.031-1.031H22.167a1.032,1.032,0,0,1,1.031,1.031V275.3a1.032,1.032,0,0,1-1.031,1.031H3.533A1.032,1.032,0,0,1,2.5,275.3Zm12.471,33.037H12.849V290.3h2.124Zm57.581,0H70.429V290.3h2.125Zm6.988-19.284a1.032,1.032,0,0,1-1.031,1.031H6.892a1.032,1.032,0,0,1-1.031-1.031v-1.094H79.542Zm0,0" transform="translate(0 -224.53)" fill="#9d0644"/><path d="M38.191,47.346a1.251,1.251,0,0,0,1.251-1.251V39.233A4.942,4.942,0,0,0,34.507,34.3H4.936A4.941,4.941,0,0,0,0,39.233V58.8a4.941,4.941,0,0,0,4.936,4.936H34.507A4.942,4.942,0,0,0,39.443,58.8V51.933a1.251,1.251,0,0,0-2.5,0V58.8a2.437,2.437,0,0,1-2.434,2.434H4.936A2.437,2.437,0,0,1,2.5,58.8V39.233A2.437,2.437,0,0,1,4.936,36.8H34.507a2.437,2.437,0,0,1,2.434,2.434v6.862A1.251,1.251,0,0,0,38.191,47.346Zm0,0" transform="translate(0 -28.576)" fill="#9d0644"/><path d="M28.524,61.57a1.251,1.251,0,0,0-1.251,1.251V80.655a1.251,1.251,0,0,0,1.251,1.251H56.366a1.251,1.251,0,0,0,1.251-1.251V62.821a1.251,1.251,0,0,0-1.251-1.251ZM55.115,79.4H29.775V64.072h25.34Zm0,0" transform="translate(-22.724 -51.3)" fill="#9d0644"/></svg>