<svg xmlns="http://www.w3.org/2000/svg" width="93.371" height="91.506" viewBox="0 0 93.371 91.506"><g transform="translate(69.523 48.418)"><path d="M388.755,270.613a1.359,1.359,0,0,0-1.359,1.359,1.725,1.725,0,1,1-3.451,0,1.359,1.359,0,0,0-2.718,0,4.443,4.443,0,0,0,8.886,0A1.359,1.359,0,0,0,388.755,270.613Z" transform="translate(-381.228 -270.613)" fill="#9d0644"/></g><g transform="translate(0 0)"><path d="M89.805,53.755,85.98,52.53a1.6,1.6,0,0,1-1.033-1.046,24.659,24.659,0,0,0-3.615-7.151,26.243,26.243,0,0,0-2.415-2.849,33.705,33.705,0,0,0,.831-7.7c-.057-3.462-.749-5.493-2.115-6.208-.736-.386-2.975-1.558-15.1,3.991a4.41,4.41,0,0,0-.8.478c-.817-.22-1.652-.423-2.493-.605-.1-.022-.206-.042-.307-.063A18.511,18.511,0,0,0,60.6,24.5a1.359,1.359,0,0,0-2.715-.122A15.81,15.81,0,0,1,47.537,38.512a39.406,39.406,0,0,0-10.938,0A15.823,15.823,0,1,1,56.212,16.544a1.359,1.359,0,0,0,2.427-1.222A18.548,18.548,0,1,0,32.227,39.384h0q-1.267.329-2.513.743a1.359,1.359,0,0,0,.862,2.578,36.467,36.467,0,0,1,22.984,0,1.359,1.359,0,0,0,.862-2.578q-1.244-.416-2.513-.743h0a18.529,18.529,0,0,0,5.641-5.515c.375.073.746.149,1.113.229q.732.159,1.455.339c-.015.059-.031.118-.043.178a16.206,16.206,0,0,0,.128,8.267,9.838,9.838,0,0,0,3.6,5.066A11.431,11.431,0,0,0,70.5,50.07a8.966,8.966,0,0,0,4.334-1c1.277-.723,2.347-2.248,3.195-4.537q.587.686,1.112,1.4A21.941,21.941,0,0,1,82.356,52.3a4.321,4.321,0,0,0,2.8,2.819l3.825,1.225a2.406,2.406,0,0,1,1.678,2.3v6.342a2.406,2.406,0,0,1-1.678,2.3l-6.162,1.974a4.2,4.2,0,0,0-2.349,1.908A27.084,27.084,0,0,1,69.152,81.455a2.129,2.129,0,0,0-1.117,1.5l-1.974,10.45a.611.611,0,0,1-.6.5H59.044a.611.611,0,0,1-.6-.5l-1.093-5.775a2.135,2.135,0,0,0-2.428-1.717,56.8,56.8,0,0,1-8.465.63,54.175,54.175,0,0,1-6.228-.352,2.153,2.153,0,0,0-2.355,1.727l-1.039,5.488a.611.611,0,0,1-.6.5H29.82a.612.612,0,0,1-.6-.5l-1.9-9.87a2.133,2.133,0,0,0-1.1-1.484C17.553,77.419,12.97,69.686,12.97,59.685A26.123,26.123,0,0,1,16.256,46.4a23.708,23.708,0,0,1,8.832-8.622,1.359,1.359,0,0,0-1.361-2.353A25.865,25.865,0,0,0,10.6,54.75h0c-.131-.012-.262-.023-.392-.037A6.766,6.766,0,0,0,9.712,52a5.566,5.566,0,0,0-4.126-3.6A3.755,3.755,0,0,0,2.05,49.974c-1.3,1.713-1.085,3.069-.68,3.9.684,1.41,2.444,2.408,5.363,3.035q-.12.18-.265.362a6.668,6.668,0,0,1-5.077,2.687A1.427,1.427,0,0,0,0,61.382v.007a1.423,1.423,0,0,0,1.363,1.419q.146.007.306.007c1.67,0,4.35-.616,6.924-3.844a7.75,7.75,0,0,0,.992-1.6q.385.043.739.076h0c-.046.736-.072,1.484-.072,2.244a28,28,0,0,0,4.009,15A27.472,27.472,0,0,0,24.7,84.316l1.847,9.6a3.331,3.331,0,0,0,3.27,2.709h6.417a3.331,3.331,0,0,0,3.27-2.709l.939-4.962a57.268,57.268,0,0,0,6.012.311,59.7,59.7,0,0,0,8.326-.58l.99,5.231a3.331,3.331,0,0,0,3.27,2.709h6.417a3.331,3.331,0,0,0,3.27-2.71l1.922-10.174A29.627,29.627,0,0,0,82.817,72.525a1.485,1.485,0,0,1,.826-.681l6.162-1.974a5.116,5.116,0,0,0,3.566-4.888V58.642A5.115,5.115,0,0,0,89.805,53.755ZM76.827,37.6c-.523,4.473-1.926,8.3-3.336,9.1-1.6.908-5.3,1.083-8.079-.949s-3.706-5.692-2.677-10.578h0a1.639,1.639,0,0,1,.933-1.135c6.8-3.114,10.725-4.133,12.182-4.133a1.421,1.421,0,0,1,.493.066C76.781,30.439,77.355,33.091,76.827,37.6ZM3.815,52.692c-.141-.29.191-.8.4-1.078a1.084,1.084,0,0,1,.873-.531,1.02,1.02,0,0,1,.137.01,2.962,2.962,0,0,1,1.964,1.924A4.126,4.126,0,0,1,7.475,54.3C5.594,53.908,4.132,53.346,3.815,52.692Z" transform="translate(0 -5.115)" fill="#9d0644"/></g><g transform="translate(36.992 8.725)"><path d="M209.241,61.223V56.361c1.677.12,2.3.886,2.875.886.719,0,1.054-.91,1.054-1.365,0-1.174-2.3-1.677-3.929-1.725V53.51c0-.287-.359-.551-.719-.551a.632.632,0,0,0-.695.551V54.2c-2.276.24-4.551,1.437-4.551,4.456,0,3.066,2.4,3.929,4.551,4.7v5.629c-2.443-.192-3.09-1.869-3.881-1.869-.6,0-1.1.791-1.1,1.366,0,1.174,2.012,2.779,4.983,2.827h0v.743a.632.632,0,0,0,.695.551c.359,0,.719-.264.719-.551v-.814A4.641,4.641,0,0,0,213.6,66.3C213.6,63.044,211.325,61.99,209.241,61.223Zm-1.27-.455c-1.27-.479-2.3-.982-2.3-2.347,0-1.246.958-1.845,2.3-2.012Zm1.126,8.169V63.883c1.174.5,2.108,1.174,2.108,2.683A2.278,2.278,0,0,1,209.1,68.937Z" transform="translate(-202.845 -52.959)" fill="#9d0644"/></g></svg>