<svg xmlns="http://www.w3.org/2000/svg" width="84.02" height="94.417" viewBox="0 0 84.02 94.417"><circle cx="3.333" cy="3.333" r="3.333" transform="translate(20.243 54.954)" fill="#9d0644"/><circle cx="3.333" cy="3.333" r="3.333" transform="translate(57.112 54.954)" fill="#9d0644"/><path d="M110.631,213.875a6.77,6.77,0,0,0-4.819,2,1.78,1.78,0,0,0,2.518,2.518,3.254,3.254,0,0,1,4.6,0,1.78,1.78,0,0,0,2.518-2.518A6.772,6.772,0,0,0,110.631,213.875Z" transform="translate(-87.056 -166.276)" fill="#9d0644"/><path d="M271.476,215.883a1.78,1.78,0,0,0,2.518,2.518,3.258,3.258,0,0,1,4.6,0,1.78,1.78,0,0,0,2.518-2.518A6.823,6.823,0,0,0,271.476,215.883Z" transform="translate(-215.85 -166.288)" fill="#9d0644"/><path d="M192.953,323.653a4.849,4.849,0,0,1-6.858,0,1.78,1.78,0,0,0-2.518,2.518,8.41,8.41,0,0,0,11.894,0,1.78,1.78,0,1,0-2.518-2.518Z" transform="translate(-147.514 -251.218)" fill="#9d0644"/><path d="M107.377,56.568a9.888,9.888,0,0,0-8.093-9.71V17.073A11.5,11.5,0,0,0,83.968,6.225L72.79,2.431a44.355,44.355,0,0,0-26.146-.865C35.5,4.642,29.1,11.146,28.118,20.392a13.516,13.516,0,0,0-2.038,3.84L25.213,26.8a3.092,3.092,0,0,0,5.08,3.211,6.213,6.213,0,0,1,1.158-.88V46.858a9.871,9.871,0,0,0,.557,19.506,34.19,34.19,0,0,0,9.349,17.963,33.494,33.494,0,0,0,24.011,10.09h0a33.937,33.937,0,0,0,33.412-28.06A9.888,9.888,0,0,0,107.377,56.568Zm-15.2-46.11a7.818,7.818,0,0,1,3.55,6.615v23.3A11.568,11.568,0,0,1,85.953,28.96L85.806,9.384A7.8,7.8,0,0,1,92.173,10.458ZM29.107,26.4l.346-1.024a9.972,9.972,0,0,1,13.658-5.848,13.614,13.614,0,0,0,15.85-3.3l.441-.5a1.78,1.78,0,0,0-2.667-2.359l-.441.5A10.032,10.032,0,0,1,44.615,16.3a13.549,13.549,0,0,0-11.041-.173c-.322.138-.634.292-.942.452C34.7,11.058,39.711,7.173,47.591,5a40.808,40.808,0,0,1,24.055.8l10.6,3.6.139,9.2A31.3,31.3,0,0,1,62.938,30.854,31.3,31.3,0,0,1,39.868,26.3,9.648,9.648,0,0,0,29.107,26.4ZM26.918,56.568a6.323,6.323,0,0,1,4.533-6.056v9.65q0,1.251.089,2.486A6.324,6.324,0,0,1,26.918,56.568Zm59.914,25.4A30.157,30.157,0,0,1,65.37,90.855h0a29.962,29.962,0,0,1-21.475-9.029,30.677,30.677,0,0,1-8.88-21.664V28.29a6.153,6.153,0,0,1,2.91.989A34.846,34.846,0,0,0,63.6,34.352,34.822,34.822,0,0,0,82.392,24.128V28.96a15.13,15.13,0,0,0,13.33,15V60.5A30.155,30.155,0,0,1,86.832,81.964ZM99.214,62.644c.044-.711.069-1.425.069-2.144V50.513a6.312,6.312,0,0,1-.069,12.131Z" transform="translate(-23.357 0)" fill="#9d0644"/></svg>