<svg xmlns="http://www.w3.org/2000/svg" width="84.369" height="84.387" viewBox="0 0 84.369 84.387"><g transform="translate(-1337 -2231)"><g transform="translate(1337 2231)"><path d="M58.163,9.353,37.066.118a1.406,1.406,0,0,0-1.125,0l-21.1,9.235A1.406,1.406,0,0,0,14,10.641V32.723a15.491,15.491,0,0,0,6.413,12.529L34.994,55.768a2.574,2.574,0,0,0,3.018,0L52.593,45.253a15.491,15.491,0,0,0,6.413-12.529V10.641A1.406,1.406,0,0,0,58.163,9.353ZM56.194,32.724a12.671,12.671,0,0,1-5.246,10.248L36.5,53.389,22.059,42.972a12.671,12.671,0,0,1-5.246-10.248V11.561L36.5,2.942l19.691,8.619Z" transform="translate(5.666 -0.001)" fill="#9d0644"/><path d="M34.315,4.484,18.844,11.257A1.406,1.406,0,0,0,18,12.546v18.4a9.845,9.845,0,0,0,4.079,7.966l11.976,8.639a1.406,1.406,0,0,0,1.646,0l11.976-8.639a9.845,9.845,0,0,0,4.079-7.966v-18.4a1.406,1.406,0,0,0-.844-1.288L35.44,4.484A1.406,1.406,0,0,0,34.315,4.484Zm14.627,8.98V30.949a7.032,7.032,0,0,1-2.911,5.685L34.878,44.679,23.724,36.634a7.032,7.032,0,0,1-2.911-5.685V13.464L34.878,7.308Z" transform="translate(7.292 1.774)" fill="#9d0644"/><path d="M11.645,36.027,8.6,28.919A4.484,4.484,0,1,0,.4,32.54L5.911,44.665a14.938,14.938,0,0,0,3.053,4.408l8.668,8.669a2.8,2.8,0,0,0-.762,1.913V70.907a2.813,2.813,0,0,0,2.813,2.813H35.155a2.813,2.813,0,0,0,2.813-2.813V59.655a2.813,2.813,0,0,0-2.813-2.813V54.225a14.737,14.737,0,0,0-3.083-9.212,10.127,10.127,0,0,0-4.688-3.419,27.823,27.823,0,0,1-8.052-5.167A6.47,6.47,0,0,0,11.645,36.027Zm23.509,34.88H19.683V59.655H35.155ZM29.876,46.769a11.934,11.934,0,0,1,2.466,7.456v2.617H20.712l-9.758-9.758A12.165,12.165,0,0,1,8.471,43.5L2.959,31.377a1.671,1.671,0,1,1,3.058-1.35l3.146,7.338A16.6,16.6,0,0,0,12.71,42.6l6.425,6.426a1.406,1.406,0,1,0,1.989-1.989L14.7,40.615a13.872,13.872,0,0,1-1.734-2.11,3.657,3.657,0,0,1,4.556.076,29.987,29.987,0,0,0,8.973,5.682A7.388,7.388,0,0,1,29.876,46.769Z" transform="translate(-0.017 10.667)" fill="#9d0644"/><path d="M22.813,53H21.406a1.406,1.406,0,1,0,0,2.813h1.406a1.406,1.406,0,1,0,0-2.813Z" transform="translate(8.105 21.542)" fill="#9d0644"/><path d="M65.056,44.684l5.512-12.125a4.484,4.484,0,1,0-8.2-3.622L59.33,36.019a6.487,6.487,0,0,0-7.695.422,27.823,27.823,0,0,1-8.052,5.167A10.126,10.126,0,0,0,38.9,45.028a14.737,14.737,0,0,0-3.083,9.217v2.617A2.813,2.813,0,0,0,33,59.674V70.926a2.813,2.813,0,0,0,2.813,2.813H51.284A2.813,2.813,0,0,0,54.1,70.926V59.674a2.8,2.8,0,0,0-.762-1.913L62,49.092A14.938,14.938,0,0,0,65.056,44.684ZM51.284,70.926H35.813V59.674H51.284ZM50.256,56.862H38.626V54.244a11.934,11.934,0,0,1,2.466-7.454,7.392,7.392,0,0,1,3.376-2.508A29.975,29.975,0,0,0,53.442,38.6a3.657,3.657,0,0,1,4.564-.089,13.792,13.792,0,0,1-1.743,2.124l-6.425,6.426a1.406,1.406,0,0,0,1.989,1.989l6.425-6.426A16.6,16.6,0,0,0,61.8,37.385l3.146-7.339A1.672,1.672,0,1,1,68,31.4L62.491,43.523A12.164,12.164,0,0,1,60.008,47.1Z" transform="translate(13.389 10.648)" fill="#9d0644"/><path d="M39.813,53H38.406a1.406,1.406,0,0,0,0,2.813h1.406a1.406,1.406,0,0,0,0-2.813Z" transform="translate(15.015 21.542)" fill="#9d0644"/><path d="M25.25,24.94a1.406,1.406,0,0,0-1.688,2.25l5.626,4.219a1.406,1.406,0,0,0,.844.281,1.505,1.505,0,0,0,.238-.02,1.406,1.406,0,0,0,.932-.606L42.454,14.187a1.407,1.407,0,0,0-2.34-1.561L29.686,28.267Z" transform="translate(9.324 4.877)" fill="#9d0644"/></g></g></svg>